<?xml version="1.0" encoding="UTF-8"?>
<svg id="Layer_1" data-name="Layer 1" xmlns="http://www.w3.org/2000/svg" viewBox="0 0 78.53 50.32">
  <defs>
    <style>
      .cls-1 {
        fill: #96f74b;
      }

      .cls-2 {
        fill: #96f74b;
      }

      .cls-3 {
        fill: #040509;
      }
    </style>
  </defs>
  <polygon class="cls-1" points="34.73 25.16 31.84 23.52 15.41 14.25 15.41 15.98 15.41 25.08 15.41 25.24 15.41 34.33 15.41 36.06 31.84 26.79 34.73 25.16"/>
  <polygon class="cls-2" points="39.98 17.21 39.92 17.18 34.73 14.25 34.73 15.98 34.73 21.18 34.73 25.08 34.73 25.24 34.73 29.13 34.73 34.33 34.73 36.06 39.92 33.14 39.98 33.1 54.06 25.16 39.98 17.21"/>
  <path class="cls-3" d="M78.53,25.08h-.23L40.94,0h-16.25v6.58h-.01s0,.03,0,.03l-5.18-2.93-.06-.04L12.97,0H0v50.32h12.94l6.49-3.66.06-.04,5.18-2.93v.06h.01s0,6.57,0,6.57h16.25l37.35-25.08h.23l-.12-.08.12-.08ZM15.34,34.33V14.25l16.43,9.27,2.89,1.63-2.89,1.63-16.43,9.27v-1.73ZM39.99,33.14l-5.18,2.93V14.25l5.18,2.93.06.04,14.08,7.94-14.08,7.94-.06.04Z"/>
</svg>